<svg width="172" height="204" viewBox="0 0 172 204" fill="none" xmlns="http://www.w3.org/2000/svg">
<path fill-rule="evenodd" clip-rule="evenodd" d="M25.0974 104.474C26.6595 100.043 25.4861 94.4343 28.7059 90.7684C29.6583 90.1724 30.1634 90.504 30.5554 91.5433C30.792 92.9108 31.3465 97.6196 29.3524 97.6174C29.1016 100.558 29.2584 103.52 29.8725 106.406C31.3441 106.163 32.417 106.942 33.4906 107.521C34.2911 107.953 35.0919 108.274 36.0586 107.978C40.0496 107.253 41.187 111.569 41.2355 115.091C41.2941 116.81 41.4509 120.816 42.1861 122.484C45.5138 115.388 52.5025 112.157 59.1616 110.562C60.2054 110.264 61.0961 109.858 61.7657 109.164C67.3763 106.883 64.6809 99.4094 67.2621 95.1142C71.3023 90.0081 76.1543 88.5388 82.267 89.4139C87.6152 90.0229 91.2506 95.6169 90.9209 100.897C90.822 101.975 91.4501 103.108 91.8195 104.217C95.5111 108.765 101.255 110.8 106.196 113.549C122.675 121.842 128.386 128.179 134.79 145.826C137.785 152.465 141.37 158.909 142.561 166.222C143.96 174.838 143.965 183.659 143.478 192.361C144.387 192.473 143.397 199.162 142.6 201.48C142.326 202.274 141.672 202.846 140.856 202.833C139.214 203.655 135.361 206.965 133.644 206.855C128.098 206.503 122.706 207.047 117.363 206.766C111.581 206.461 105.856 205.351 100.05 205.495C89.9248 205.746 97.1738 206.365 86.6985 206.855C80.0858 207.169 55.9607 203.45 49.3667 204.057C44.0032 205.219 41.5563 203.26 42.3745 197.491C42.677 195.279 43.643 190.361 40.4652 190.152C38.962 190.331 37.7178 191.878 36.5914 192.782C26.6442 200.408 16.4821 194.917 15.6813 182.381C14.1738 171.866 12.0599 169.382 16.655 158.882C31.1931 119.795 9.28976 125.106 24.0784 106.797C25.2332 107.833 24.9397 105.069 25.0974 104.474Z" fill="white"/>
<path fill-rule="evenodd" clip-rule="evenodd" d="M30.6223 90.4756C29.8289 89.6727 28.5677 89.8724 27.794 90.5863C27.0066 91.3113 26.5327 92.4509 26.1285 93.4333C24.3146 97.85 24.737 102.686 23.8195 107.307C22.1404 108.241 20.6246 109.46 19.5513 111.1C17.9206 113.591 17.1469 116.493 17.9645 119.446C18.387 120.973 19.1046 122.389 19.6164 123.884C20.163 125.476 20.4976 127.13 20.6581 128.811C20.8156 130.46 20.8367 132.119 20.7913 133.775C20.7671 134.632 20.7232 135.488 20.6793 136.344C20.6399 137.111 20.5079 137.912 20.6861 138.663L20.7081 138.75C20.6384 138.739 20.5703 138.725 20.5021 138.709C19.9176 138.575 19.4029 138.366 18.7927 138.449C18.3173 138.513 18.0705 138.921 18.2719 139.383C18.3597 139.584 18.4763 139.752 18.6171 139.895C17.3907 149.234 15.2483 158.423 13.8387 167.732C13.1997 171.956 12.8106 176.192 13.0301 180.468L13.0532 180.892C13.277 184.818 13.8269 189.145 15.7646 192.578C16.67 194.186 17.9146 195.612 19.4226 196.64C20.1132 197.11 20.8534 197.478 21.6574 197.662C25.8241 199.371 30.2301 198.952 34.1592 196.693C35.9261 195.678 37.6885 194.494 39.1314 193.026C39.8325 192.312 40.5091 191.403 40.9241 190.41C40.9226 190.633 40.9617 190.861 40.9181 191.08L40.8306 191.515C40.1763 194.742 37.6822 206.669 37.6491 207.67C37.6312 208.21 42.0471 208.197 42.5263 208.213L42.5396 208.214C49.6917 208.521 56.8481 208.357 63.9962 208.053L64.5605 208.028C71.4927 207.726 79.0363 207.32 85.976 207.112L85.9616 206.992C85.8786 206.35 85.4743 203.496 85.4292 203.278L85.4276 203.27C85.2309 202.454 84.8515 199.915 85.0512 199.073C85.5656 196.904 87.8837 197.399 89.5146 197.629L89.8581 197.676C90.1221 197.713 90.7646 197.81 90.7585 197.817C90.9318 197.631 90.5196 197.103 90.4181 196.962L90.3368 196.846C89.8986 196.215 89.5021 195.559 89.5455 194.745C89.6508 192.758 92.409 192.87 93.7645 193.008C93.86 193.017 93.8991 193.171 93.789 193.194L93.5216 193.251C92.6617 193.441 90.7517 193.926 90.7949 194.658C90.8194 195.075 91.2499 195.382 91.5129 195.644C91.8028 195.933 92.0909 196.244 92.3049 196.599C92.7167 197.283 92.8103 198.204 92.4028 198.916C91.9328 199.736 91.0992 199.832 90.2642 199.757L90.217 199.753C90.0332 199.735 89.8495 199.717 89.6657 199.699L88.5634 199.588C88.2904 199.56 87.4133 199.324 87.1571 199.487C86.7941 199.718 87.2307 200.743 87.3126 201.081L87.317 201.105C87.3874 201.594 87.4295 206.718 87.4366 207.056C92.8448 206.927 98.2537 205.689 103.662 205.98C107.958 206.211 112.243 206.61 116.531 206.957L116.639 206.009C117.828 195.688 119.692 182.068 118.797 171.859C118.727 171.06 119.939 171.065 120.008 171.859C120.933 182.416 118.909 196.597 117.731 207.052C119.557 207.195 121.383 207.325 123.212 207.424L123.678 207.448C129.9 207.768 136.321 207.787 142.41 206.318C142.598 206.273 142.662 206.08 142.622 205.919C142.683 205.955 142.774 205.935 142.799 205.847C143.509 203.44 143.869 197.31 144.19 194.657L144.212 194.484C144.542 191.906 144.731 189.3 144.868 186.707C145.143 181.52 145.11 176.327 144.737 171.146C143.552 154.622 138.831 137.928 128.923 124.648C126.527 121.438 123.801 118.501 120.529 116.229C117.319 114 113.718 112.43 110.065 111.155C107.65 110.311 105.197 109.589 102.744 108.869C102.651 108.821 102.558 108.774 102.465 108.728L102.325 108.659C101.453 108.233 100.594 107.767 99.7009 107.388L99.5035 107.305C98.209 106.771 96.7008 106.298 95.2994 106.314C93.0298 105.137 91.1236 103.358 91.3083 100.505C91.384 99.3325 89.5974 99.3341 89.5338 100.505C89.3672 103.62 91.2309 105.829 93.6067 107.312L93.5953 107.324L93.584 107.337C93.213 107.77 92.8163 108.172 92.3878 108.546C89.823 110.795 86.5783 112.661 83.3351 113.889C79.5302 115.331 75.7284 115.763 71.7933 114.597C69.7356 113.987 67.7931 113.047 66.008 111.831C65.4629 111.46 64.9405 111.063 64.4394 110.637C64.9133 109.97 65.2918 109.251 65.6097 108.489C66.2485 106.955 66.7771 104.876 66.1245 103.257C65.964 102.857 65.3266 102.611 65.104 103.119C64.4908 104.51 64.235 106.013 63.5203 107.373C63.2478 107.89 62.9344 108.381 62.5831 108.844C62.5831 108.869 59.9001 109.342 59.9001 109.342C56.657 109.34 53.6031 110.623 50.7339 112.226C49.0378 113.173 47.3711 114.181 45.7091 115.19L42.4609 117.163C42.2217 117.308 41.9537 117.448 41.6857 117.598C41.9991 116.005 42.152 114.38 42.0491 112.77C41.8931 110.341 40.9756 107.684 38.5455 106.819C37.3963 106.409 36.0669 106.535 34.951 106.99C34.4363 107.201 33.876 107.48 33.3976 107.853C33.1658 106.78 32.1894 105.976 31.2082 105.62C30.8903 105.505 30.5647 105.431 30.2347 105.396C30.2444 105.223 30.2453 105.049 30.243 104.87L30.2407 104.735C30.2256 103.939 30.2316 103.144 30.2483 102.351C30.2786 100.846 30.3482 99.373 30.4966 97.8733C30.6205 96.6317 30.8357 95.4043 30.9955 94.1678L31.0617 93.6362C31.1965 92.5891 31.4227 91.285 30.6223 90.4756ZM128.182 191.998L128.452 191.833C129.339 191.294 130.252 190.797 131.326 191.046C132.35 191.284 133.075 192.139 133.457 193.103C133.637 193.559 133.731 194.018 133.8 194.503C133.84 194.775 133.866 195.049 133.912 195.319L133.928 195.403C133.949 195.511 133.981 195.661 134.01 195.791C134.289 195.664 134.57 195.464 134.799 195.344L134.983 195.249C135.416 195.027 135.865 194.816 136.337 194.714C137.358 194.492 138.49 194.813 139.073 195.755C139.573 196.56 139.562 197.509 139.371 198.411L139.358 198.474C139.275 198.849 138.847 200.348 138.224 200.13C137.619 199.917 137.538 199.088 137.492 198.536L137.489 198.483C137.468 198.067 137.548 197.192 137.09 197.034C136.518 196.836 135.417 197.738 134.919 197.974C134.028 198.395 133.049 198.52 132.324 197.7C131.674 196.965 131.619 195.889 131.451 194.957L131.407 194.722C131.318 194.249 131.145 193.492 130.636 193.511C130.22 193.527 129.764 193.971 129.421 194.182C129.043 194.414 128.65 194.608 128.239 194.773C127.281 195.159 126.215 195.282 125.196 195.168C124.605 195.102 124.221 194.812 124.012 194.24C123.941 194.072 123.887 193.899 123.85 193.72C123.519 192.439 125.328 191.525 125.994 192.671C126.764 192.641 127.48 192.428 128.182 191.998ZM16.8821 183.436C17.4336 183.031 18.1824 183.118 18.6753 183.574L18.7046 183.602C18.8412 183.738 19.1492 184.092 19.3487 184.403L19.4112 184.353C19.4211 184.345 19.4309 184.337 19.4402 184.329L19.4673 184.306C19.8749 183.951 20.3008 183.626 20.8253 183.481C22.1919 183.103 23.4339 184.045 24.0306 185.253C24.3136 185.826 24.4347 186.418 24.5758 187.036L24.5878 187.092C24.6447 187.38 24.7187 187.964 24.9639 188.107C25.0539 188.159 25.2583 188.056 25.4606 187.935C25.922 187.661 26.3361 187.312 26.7882 187.023C27.8489 186.345 29.0543 186.065 30.2456 186.554C31.4249 187.037 32.2698 188.178 32.2896 189.508C32.3043 190.488 31.6669 192.199 30.4672 192.079C30.227 192.055 29.9176 191.903 29.8787 191.618C29.7753 190.861 30.3549 189.931 29.6902 189.306C29.0475 188.702 28.3816 189.21 27.7997 189.629L27.3828 189.931C26.7057 190.415 26.0083 190.858 25.151 190.911C24.0663 190.978 23.0649 190.361 22.5191 189.41C22.0256 188.551 22.0184 187.579 21.6326 186.696C21.5482 186.504 21.3308 186.326 21.4032 186.237C21.1108 186.394 20.7337 186.846 20.5515 186.972C19.6446 187.602 18.4321 187.598 17.637 186.762C17.3203 186.43 17.1186 186.02 16.8841 185.628C16.7993 185.487 16.6935 185.356 16.6161 185.21C16.5877 185.157 16.5412 184.958 16.503 184.78L16.4442 184.499L16.4381 184.453C16.3878 184.027 16.534 183.691 16.8821 183.436ZM51.8143 179.714C52.8562 179.151 54.1406 179.365 55.0791 180.047C56.1316 180.813 56.648 181.988 56.9993 183.231C57.2549 184.136 57.3774 185.383 58.1119 186.038C58.9667 186.801 60.3998 185.991 61.3022 185.691C62.394 185.327 63.7059 185.178 64.7712 185.716C65.8152 186.243 66.3183 187.318 66.4261 188.47C66.5268 189.545 66.3772 190.96 65.7817 191.859C65.7232 191.948 65.6113 191.925 65.5742 191.831C65.1828 190.839 65.2582 189.704 64.9404 188.677C64.6011 187.581 63.8059 187.349 62.7963 187.644C61.7432 187.951 60.7789 188.527 59.6959 188.732C58.5412 188.95 57.398 188.725 56.4877 187.939C55.7219 187.278 55.2581 186.315 54.9447 185.356C54.6393 184.421 54.5895 183.169 53.939 182.392C53.7749 182.196 53.4889 181.96 53.2233 181.935C52.8288 181.897 52.6861 182.199 52.3674 182.43C51.5266 183.041 50.1846 183.054 49.6698 181.979C49.5013 181.627 49.4177 181.128 49.6698 180.783C50.1117 180.18 50.4747 180.185 51.0579 180.315C51.0764 180.299 51.0972 180.278 51.1204 180.251L51.1383 180.228C51.2926 180.027 51.5922 179.834 51.8143 179.714ZM93.0787 173.372C93.1132 172.564 94.0576 171.789 94.8025 172.354C94.9227 172.443 95.041 172.536 95.157 172.632L95.2045 172.684V172.684C95.3431 172.684 95.4723 172.647 95.6092 172.602L95.8486 172.522C96.4772 172.317 97.0816 172.152 97.7526 172.303C98.907 172.564 99.6396 173.59 100.016 174.678C100.366 175.693 100.251 176.728 100.416 177.768C100.571 178.754 101.064 179.139 101.988 178.928L102.035 178.917C103.873 178.464 105.968 177.196 107.579 178.934C109.32 180.811 108.182 183.793 106.276 184.999C106.193 185.052 106.1 184.965 106.119 184.875C106.373 183.662 107.111 182.506 106.864 181.219C106.692 180.327 106.09 179.905 105.231 180.047C103.424 180.346 101.734 181.829 99.8809 180.753C98.9552 180.215 98.4451 179.205 98.2145 178.17C98.0068 177.239 98.0657 176.189 97.6676 175.311C97.2322 174.35 96.4987 175.046 95.7084 175.178C94.5902 175.363 93.0192 174.759 93.0787 173.372ZM32.4582 144.65C32.4546 143.847 33.6659 143.846 33.6695 144.65C33.7142 154.818 38.334 164.217 39.1638 174.284C39.2296 175.084 38.018 175.079 37.9526 174.284C37.1224 164.214 32.5029 154.834 32.4582 144.65ZM132.479 161.294C133.117 160.55 134.051 160.781 134.81 161.154C135.949 161.713 137.04 162.342 138.086 163.069C138.343 163.248 138.181 163.637 137.878 163.577C137.111 163.425 136.365 163.255 135.621 163.009C135.062 162.824 134.48 162.555 133.896 162.46C133.933 162.598 133.977 162.733 134.03 162.866C134.125 163.139 134.236 163.406 134.331 163.679C134.518 164.223 134.687 164.776 134.851 165.328L134.933 165.605C135.274 166.763 135.605 168.45 134.032 168.807C133.449 168.939 132.87 168.677 132.327 168.471L132.216 168.429L130.235 167.707C130 167.621 129.563 167.561 129.367 167.41L129.398 167.565C129.439 167.77 129.479 167.972 129.564 168.176L129.612 168.289C130.104 169.437 130.724 170.586 130.151 171.855C129.659 172.943 128.497 173.459 127.378 173.15C126.314 172.857 125.544 171.623 126.095 170.55C126.3 170.15 126.901 169.954 127.282 170.204L127.385 170.274C127.505 170.355 127.712 170.494 127.717 170.52C127.745 170.527 127.775 170.535 127.805 170.543C127.741 170.348 127.698 170.049 127.642 169.916L127.434 169.432C127.049 168.521 126.715 167.595 127.009 166.574C127.851 163.65 130.708 165.312 132.815 166.147C132.784 166.023 132.753 165.901 132.728 165.782C132.637 165.358 132.537 164.937 132.439 164.516L132.238 163.646C132.056 162.844 131.915 161.952 132.479 161.294ZM24.6778 158.03C24.676 157.961 24.7587 157.908 24.8167 157.948C26.1638 158.881 27.0649 160.828 26.5588 162.486C26.313 163.292 25.7904 163.998 25.0567 164.389C24.1444 164.875 23.1371 164.69 22.1786 164.482L21.7715 164.393C21.4846 164.33 21.2015 164.285 20.9094 164.368C20.8092 164.396 20.6929 164.486 20.5977 164.506C20.637 164.575 20.6788 164.694 20.7 164.738L20.7694 164.882C20.8392 165.028 20.9072 165.18 20.9499 165.333C21.0931 165.847 21.0577 166.398 20.8257 166.878C20.3936 167.771 19.4872 168.274 18.5437 168.359C17.9815 168.411 16.5651 167.904 16.2301 168.518C15.5655 169.737 13.6727 168.917 14.0406 167.567C14.2894 166.655 14.9951 166.065 15.8695 165.818C16.3354 165.687 16.8176 165.705 17.2914 165.759C17.4769 165.78 17.6619 165.809 17.8477 165.83L17.9872 165.843C17.9509 165.84 18.3723 165.829 18.5415 165.818L18.5054 165.718C18.5001 165.704 18.4953 165.691 18.491 165.682C18.3026 165.267 18.163 164.854 18.1744 164.39C18.1951 163.554 18.7205 162.825 19.4108 162.423C20.0472 162.052 20.805 161.904 21.5284 161.986C22.3236 162.077 23.4537 162.726 24.2357 162.384C24.8248 162.127 25.0249 161.229 25.0339 160.64C25.0476 159.754 24.7018 158.913 24.6778 158.03ZM79.5449 152.216C81.7122 151.215 83.5733 152.925 84.8451 154.562C84.9107 154.646 84.8282 154.789 84.7248 154.723L84.5559 154.614C83.5174 153.944 82.366 153.151 81.0793 153.38C79.9142 153.587 79.6258 154.372 79.8576 155.441L79.9257 155.742C80.1721 156.844 80.3611 157.984 79.7474 159.008C79.1679 159.975 78.0374 160.398 76.9786 160.424C75.7572 160.454 74.703 159.869 73.5863 159.461L73.498 159.429C73.0238 159.26 71.2936 158.82 71.2697 159.823C71.2585 160.282 71.7354 160.821 71.9188 161.233C72.1588 161.772 72.3185 162.339 72.3156 162.938C72.3085 164.431 71.0982 165.645 69.666 164.92C69.1093 164.638 68.9657 163.83 69.2561 163.31C69.665 162.578 69.8306 162.616 69.5441 161.847L69.4614 161.631C69.1088 160.704 68.828 159.751 69.2242 158.778C70.0154 156.836 72.388 156.601 74.083 157.244L74.1449 157.268C75.2 157.689 78.3597 159.375 78.1418 156.991C78.0561 156.051 77.7794 155.151 77.9729 154.201C78.1527 153.319 78.7503 152.583 79.5449 152.216ZM89.988 144.24C90.3837 143.523 91.7118 143.78 91.6017 144.69L91.5665 144.974C91.5215 145.362 91.5116 145.726 91.7719 146.071C92.0878 146.49 92.6284 146.616 93.1192 146.552C94.1581 146.417 94.8207 145.425 95.9641 145.657C96.8923 145.845 97.5332 146.627 97.9043 147.479C98.2972 148.382 98.2888 149.361 98.5815 150.291C98.9186 151.36 99.6373 151.311 100.535 150.937L100.728 150.855C101.587 150.488 102.448 150.079 103.405 150.255C104.994 150.547 106.362 153.063 104.874 154.278C104.605 154.497 104.135 154.382 104.147 153.968L104.148 153.889C104.156 153.134 103.971 152.161 103.131 151.983C102.24 151.794 101.234 152.631 100.406 152.872C98.2642 153.496 97.0438 151.836 96.68 149.872L96.6667 149.797C96.5505 149.109 96.4588 147.838 95.7606 147.516C95.3883 147.344 94.9912 147.767 94.68 147.937C94.1966 148.201 93.6779 148.369 93.131 148.411C91.1078 148.57 88.809 146.379 89.988 144.24ZM39.361 141.528C40.0276 141.231 41.0218 141.396 41.1847 142.292L41.2835 142.856C41.4772 143.945 41.7856 145.306 42.8251 145.698C43.4752 145.943 44.2218 145.514 44.8049 145.252C45.5051 144.936 46.1878 144.666 46.9547 144.591C48.5107 144.44 49.6698 145.367 50.2201 146.815L50.2682 146.944C50.712 148.161 51.312 150.49 50.3401 151.477C50.1982 151.621 49.9122 151.691 49.7381 151.557C49.1638 151.113 49.0185 150.384 48.8214 149.7L48.8043 149.642C48.5951 148.932 48.4235 148.15 48.0458 147.51C47.3435 146.321 45.5113 147.679 44.63 147.992C43.1827 148.507 41.6818 148.206 40.5757 147.105C39.8771 146.409 39.4641 145.528 39.18 144.596C38.9987 144.693 38.8105 144.776 38.6077 144.833C37.8355 145.048 36.9195 144.934 36.3316 144.332C35.2281 143.202 35.8267 141.174 37.5091 141.502C37.8404 141.566 38.0578 141.892 38.0972 142.225L38.1197 142.277V142.277C38.5431 142.133 39.0059 141.686 39.361 141.528ZM117.324 131.428C118.896 129.763 121.623 130.666 122.699 132.432C122.922 132.798 122.553 133.262 122.162 133.151C121.226 132.886 119.905 131.84 118.916 132.506C118.183 132.999 118.582 134.288 118.649 135.009L118.659 135.116C118.744 136.098 118.763 137.441 118.02 138.175C117.593 138.598 116.938 138.541 116.374 138.481L116.195 138.462C115.53 138.393 114.87 138.272 114.234 138.062C113.649 137.868 113.095 137.606 112.545 137.327L112.408 137.258C112.164 137.133 111.353 136.641 111.11 136.95C110.983 137.112 111.297 137.819 111.363 137.977C111.609 138.57 111.922 139.129 112.148 139.733C112.547 140.797 112.58 141.998 112.021 143.013C111.479 143.997 110.304 144.794 109.263 144.038C108.667 143.605 108.669 142.818 109.263 142.385C109.578 142.156 109.895 142.005 110.025 141.62C110.194 141.119 109.976 140.587 109.765 140.123L109.512 139.571C108.952 138.338 108.392 136.921 109.175 135.661C109.983 134.36 111.626 134.339 112.868 134.881C113.577 135.19 114.224 135.605 114.963 135.844C115.475 136.01 115.988 136.121 116.512 136.182C116.628 135.533 116.463 134.806 116.462 134.162C116.459 133.182 116.636 132.156 117.324 131.428ZM36.2653 108.264C38.918 107.864 40.2019 110.307 40.3851 112.659C40.5501 114.795 40.214 116.937 39.6886 119.014C39.4918 119.784 39.2707 120.545 39.0391 121.293C38.6666 122.495 38.2624 123.696 37.7703 124.852C37.6204 125.202 37.469 125.552 37.2994 125.889C36.7185 126.379 36.2215 127.04 35.7697 127.675L35.4728 128.094V128.094L35.3932 128.207C34.6255 129.289 33.9699 130.412 33.4339 131.633C32.9235 132.795 32.5435 134.007 32.2482 135.245L32.1756 135.554C31.9484 136.506 31.6134 137.642 32.0183 138.528C31.2234 138.781 30.433 139.01 29.5882 139.132C28.4223 139.3 27.2095 139.311 26.0331 139.267C24.8964 139.224 23.761 139.133 22.6292 139.009L21.8137 138.916C21.7292 138.906 21.6448 138.896 21.5605 138.885C21.5923 138.845 21.6195 138.799 21.6392 138.75C21.9298 138.032 21.8923 137.201 21.9245 136.429L21.9284 136.344C21.9708 135.488 21.9966 134.632 22.0071 133.775C22.0268 132.166 21.9844 130.552 21.8133 128.951C21.6651 127.55 21.4333 126.148 21.0714 124.787C20.7066 123.407 20.1494 122.112 19.6346 120.786C19.1258 119.477 18.7063 118.132 18.7519 116.703C18.7806 115.796 18.9744 114.914 19.303 114.079C19.3183 114.092 19.3377 114.101 19.3605 114.1C20.3916 114.061 21.3682 113.754 22.3645 113.495C23.4213 113.219 24.5039 112.993 25.5849 112.859L25.8147 112.831C26.7157 112.727 27.6973 112.676 28.5298 113.074C29.4307 113.506 29.9985 114.466 30.3407 115.387L30.3788 115.494C30.9868 117.24 30.8474 119.572 28.9674 120.398C28.3845 120.655 27.0536 120.813 26.7538 119.999C26.6191 119.628 26.8961 119.079 27.0006 118.729C27.1232 118.311 27.2035 117.899 27.1944 117.463C27.1871 117.08 26.903 116.791 26.5416 116.76L26.5085 116.758C25.8514 116.728 24.4963 115.949 24.3646 117.071C24.3388 117.289 24.5008 117.519 24.6719 117.625C25.0171 117.835 25.3775 117.976 25.753 118.061C25.7015 118.295 25.6288 118.524 25.5575 118.752C25.5153 118.73 25.4683 118.716 25.4184 118.711C24.8627 118.665 24.3131 118.755 23.7574 118.761L23.4537 118.763C23.0224 118.768 22.6464 118.792 22.2282 119.022C21.8421 119.234 21.9102 119.765 22.2282 119.993C23.0625 120.588 24.4751 120.239 25.3442 119.634C25.3063 119.941 25.3245 120.255 25.4517 120.584C25.8272 121.56 26.9037 122.046 27.8665 122.088C28.7221 122.126 29.5397 121.848 30.2226 121.362C30.3619 121.875 30.586 122.367 30.6829 122.899C30.81 123.597 30.6586 124.414 30.8947 125.071C31.131 125.732 32.044 126.174 32.5724 125.526C33.3461 124.578 33.1054 123.077 32.4256 122.116C32.0637 121.608 31.4066 121.025 30.7374 120.933C31.2022 120.483 31.5746 119.926 31.8093 119.312C31.826 119.319 31.8457 119.321 31.8669 119.315C34.0426 118.702 35.2266 116.672 35.2993 114.541C35.4598 114.659 35.6262 114.766 35.8005 114.86C36.2168 115.091 36.7513 114.889 36.88 114.41C36.9981 113.964 36.6544 113.414 36.1714 113.451C35.8958 113.475 35.6188 113.476 35.3447 113.429C35.3069 113.423 35.2705 113.415 35.2327 113.407C35.2084 113.244 35.1767 113.08 35.1373 112.918C35.9594 113.015 36.8194 112.876 37.6143 112.695C38.2987 112.541 38.1397 111.42 37.4508 111.446L37.3401 111.451C36.4362 111.496 35.1018 111.646 34.3273 111.056C34.191 110.854 34.0396 110.662 33.8761 110.481C33.8549 110.436 33.8367 110.388 33.82 110.338C33.4037 109.103 35.3765 108.398 36.2653 108.264ZM60.0776 125.635C61.1103 125.35 62.1972 125.738 62.9074 126.541C63.5042 127.216 63.8133 128.044 64.0896 128.892L64.2473 129.379C64.4769 130.069 64.7406 130.617 65.5612 130.354C66.6128 130.016 67.5245 129.429 68.6681 129.475C69.7076 129.517 70.7249 129.978 71.4487 130.75C72.1889 131.539 72.5424 132.639 72.3852 133.722L72.375 133.789C72.2931 134.288 71.584 136.069 70.8324 135.249C70.4971 134.883 70.5632 134.479 70.4836 134.014C70.4079 133.571 70.2459 133.137 69.9805 132.778C69.5099 132.141 68.753 131.893 68.0131 132.119C67.0371 132.416 66.1751 133.028 65.1237 133.042C64.0177 133.057 63.0787 132.467 62.4686 131.54C61.9761 130.791 61.8005 129.915 61.4539 129.101L61.4205 129.024C61.1295 128.354 60.9312 128.112 60.2647 128.432L60.0318 128.547C59.0339 129.036 57.9114 129.483 56.8797 128.794C55.9211 128.155 55.5125 126.87 56.3187 125.934C56.7636 125.418 57.7933 125.506 58.0823 126.168C58.1331 126.282 58.1801 126.398 58.2265 126.514C58.3147 126.486 58.4006 126.452 58.482 126.405C59.0229 126.154 59.4925 125.796 60.0776 125.635ZM90.2259 118.07C91.4039 117.417 92.3874 118.702 92.1992 119.863L92.1901 119.914C92.1831 119.949 92.1672 120.026 92.1474 120.113C92.2075 120.106 92.267 120.095 92.3264 120.079L92.6001 120.045C93.0303 119.993 93.4474 119.967 93.878 120.109C94.8944 120.445 95.3942 121.462 95.4187 122.504C95.4431 123.543 94.9211 124.381 94.7677 125.374C94.6108 126.389 95.6311 126.099 96.2972 126.025L96.3233 126.022C97.2499 125.925 98.224 125.924 98.9941 126.546C99.7895 127.188 100.142 128.298 100.029 129.314C99.928 130.231 99.3704 131.644 98.3602 131.788C98.2604 131.803 98.1468 131.78 98.0956 131.678C97.6871 130.86 98.2555 129.957 98.1913 129.094C98.1206 128.145 97.533 127.987 96.7228 128.048C95.9366 128.108 95.1523 128.28 94.3757 128.038C93.5333 127.776 92.9219 127.032 92.749 126.154C92.5583 125.186 92.9087 124.285 93.136 123.366C93.2115 123.06 93.2486 122.753 93.1965 122.441C93.1853 122.373 93.1284 122.311 93.1078 122.284C92.9785 122.259 92.785 122.323 92.6743 122.335L92.5173 122.351C91.6641 122.431 90.8422 122.377 90.2325 121.651C89.9201 121.28 89.8048 120.825 89.8359 120.345L89.8516 120.151C89.8682 119.965 89.9001 119.719 89.9942 119.617L89.9954 119.612V119.612C89.9639 119.568 89.9339 119.523 89.9065 119.477L89.8799 119.43C89.6186 118.981 89.7701 118.323 90.2259 118.07ZM29.8727 106.691C31.0461 106.691 32.1545 107.086 33.0418 108.16C32.7253 108.47 32.4725 108.83 32.333 109.253C31.8987 109.008 31.4384 108.816 30.9675 108.68C29.5306 108.267 27.5653 108.274 26.3571 109.289C25.7242 109.819 26.4192 110.77 27.1005 110.606C27.7107 110.459 28.2406 110.188 28.8811 110.157C29.4368 110.129 29.9818 110.204 30.5148 110.369C31.3278 110.622 32.0667 111.1 32.6103 111.76C32.792 111.981 32.9509 112.221 33.0842 112.48C34.0986 114.463 33.334 117.307 31.9335 118.939C32.4831 117.059 31.935 114.842 30.8403 113.284C29.5224 111.409 27.5512 111.197 25.4746 111.489L25.4061 111.499C23.3971 111.791 20.9094 112.301 19.4075 113.821C19.5573 113.47 19.73 113.13 19.9239 112.801C21.0624 110.871 22.9504 109.365 24.9096 108.291C25.2382 108.108 25.5698 107.94 25.8999 107.784C27.155 107.19 28.554 106.691 29.8727 106.691ZM29.2308 91.9614L29.2354 91.9833C29.2364 91.9874 29.2374 91.9915 29.2384 91.9957C29.3078 92.6297 29.144 93.3574 29.0605 93.9971L29.0491 94.0879C28.8735 95.5441 28.6419 97.0018 28.5662 98.4688C28.4924 99.8796 28.5208 101.343 28.6855 102.748L28.71 102.948C28.8069 103.713 28.8644 104.611 29.1156 105.397C28.1498 105.492 27.1838 105.812 26.3056 106.152C25.9907 106.275 25.6773 106.404 25.3654 106.542C25.756 104.404 25.965 102.235 26.3889 100.104L26.4723 99.6801C26.9332 97.3225 27.3658 94.9498 28.5571 92.8407C28.7161 92.5601 28.8871 92.3247 29.0809 92.0736C29.1233 92.0161 29.1733 91.9787 29.2308 91.9614Z" fill="#02000A"/>
<path fill-rule="evenodd" clip-rule="evenodd" d="M86.0915 40.9514C63.1425 39.7894 52.7867 56.4271 52.1168 63.8583C51.6519 69.0168 54.6118 74.9625 54.6118 79.572C54.6118 81.9249 51.814 86.9762 53.1165 90.4055C56.0154 98.0384 62.1536 106.509 69.9754 106.509C77.7972 106.509 87.9767 108.737 96.6195 95.9945C97.4304 94.7989 107.687 88.0038 108.684 81.5468C111.166 65.4631 102.467 41.7806 86.0915 40.9514Z" fill="white"/>
<path fill-rule="evenodd" clip-rule="evenodd" d="M87.1735 30.597C86.3529 29.6304 84.9675 29.2438 83.7365 29.3186C81.9484 29.4277 80.3933 30.5643 78.6142 30.6485C76.749 30.7373 74.9488 30.0716 73.0789 30.3803C71.9327 30.5705 70.7972 31.1177 70.0628 32.0407C67.5192 31.2908 64.7575 32.2839 63.1374 34.4525C61.1388 34.1329 58.9646 35.4957 58.3529 37.4786C55.8138 37.5628 53.417 39.6628 53.1339 42.2945C52.1193 42.5704 51.2382 43.2908 50.6977 44.2432C50.0693 45.347 49.9649 46.613 50.0784 47.8571C48.8838 48.4854 48.2767 49.8355 48.1177 51.2636C47.026 52.1023 46.5521 53.6099 46.7747 55.0333C45.9389 55.5182 45.5073 56.6469 45.512 57.6541C45.5165 58.5942 45.7586 59.4268 45.4179 60.334C45.1145 61.1421 45.0055 61.8155 45.1724 62.6619L45.1895 62.7443C45.219 62.8823 45.2438 63.0146 45.2661 63.1451C45.04 63.3494 44.8488 63.6054 44.7052 63.9031C44.1817 64.9913 44.2597 66.2325 44.6589 67.3361C44.484 68.0389 44.5063 68.7814 44.7648 69.4569C44.2807 70.1748 44.0262 71.0554 44.101 71.969C44.1849 72.9918 44.6385 73.9078 45.3263 74.585C45.1431 75.9822 45.6949 77.4918 46.6925 78.4756C46.5509 79.312 46.6731 80.1887 47.1175 80.9816C47.4342 81.5467 47.8606 81.9677 48.3525 82.2611C48.3363 82.7277 48.3976 83.2049 48.5484 83.6831C48.7578 84.3466 49.1124 84.9579 49.5791 85.4502C49.3006 87.2834 50.3666 89.3174 52.2427 89.8318C52.4003 89.8749 52.5506 89.8947 52.6946 89.8979C52.881 91.661 53.288 93.3996 53.9181 95.0508C55.52 99.2553 58.4331 102.932 62.232 105.225C64.111 106.358 66.2216 107.135 68.3761 107.459C69.9266 107.693 71.4179 107.635 72.9743 107.476C74.9276 107.275 76.8898 106.974 78.7885 106.457L79.0939 106.373C79.881 106.156 80.7108 105.905 81.3927 105.468C82.1558 104.979 82.5524 104.224 82.728 103.335C82.826 102.841 82.5217 102.309 81.9959 102.299L81.962 102.299C81.8469 102.301 81.7328 102.297 81.6173 102.289L81.5304 102.283H81.526C81.5199 102.281 81.5167 102.281 81.5108 102.281C81.4593 102.274 81.4094 102.258 81.3594 102.25C80.7809 102.15 80.275 102.249 79.7317 102.435L79.6636 102.459C78.7491 102.783 77.8422 103.084 76.8974 103.307C75.9208 103.536 74.9321 103.719 73.9404 103.862L73.842 103.875L73.8117 103.879L73.7966 103.881V103.881C73.7935 103.881 73.7905 103.881 73.7875 103.883L73.4953 103.92V103.92C73.265 103.948 73.035 103.973 72.8048 103.998C72.3809 104.042 71.9569 104.076 71.533 104.101C64.2154 104.525 58.0698 98.5928 56.215 91.4804C55.5428 88.9065 55.4988 86.3387 55.6972 83.7695C55.7608 83.5824 55.7986 83.375 55.7971 83.1474C55.7971 83.0289 55.7909 82.912 55.7835 82.7935C56.0301 80.3084 56.4586 77.8217 56.7268 75.3273C57.04 72.4134 57.2143 69.4826 57.1507 66.5499C57.1189 65.1016 56.969 63.6673 56.7722 62.2331L56.701 61.7178V61.7178C57.5906 61.539 58.4176 61.1047 59.076 60.4759C60.505 61.3256 62.3545 61.4009 63.765 60.5037C65.3457 61.5244 67.5541 61.617 69.1459 60.619C70.1079 61.3262 71.3201 61.6313 72.51 61.3629C73.0453 61.2422 73.5775 60.981 74.0332 60.6195C74.3586 60.6786 74.6882 60.7015 75.016 60.6839L75.0837 60.7229V60.7229C75.8392 61.1329 76.6762 61.4028 77.5376 61.3727C78.1753 61.3505 78.8323 61.221 79.4405 60.9759C80.0902 61.3797 80.8012 61.6553 81.5618 61.7542C82.6727 61.8984 83.8716 61.6453 84.7955 60.9965C86.4838 61.9868 88.5605 62.1392 90.3829 61.4739C90.7561 62.1248 91.2726 62.686 91.8773 63.1186C91.769 63.5181 91.7345 63.944 91.7718 64.3535C91.8329 65.0277 91.9971 65.6321 92.2655 66.175C91.9825 66.7811 91.8974 67.5254 92.0558 68.2725C92.2816 69.3379 92.8836 70.2648 93.663 70.9866C93.7318 72.6869 94.6373 74.2812 96.1111 75.1669C96.1858 75.2116 96.26 75.2481 96.334 75.281C96.3991 75.3726 96.4769 75.4533 96.5658 75.5212C97.503 76.4128 98.9862 76.3419 100.161 75.8382C100.184 75.8393 100.206 75.8413 100.229 75.8418C100.649 75.8527 100.935 75.6843 101.105 75.4364C101.276 75.4459 101.445 75.4645 101.616 75.4972C102.24 75.6173 102.925 75.848 103.489 76.1475C104.955 76.9237 105.633 78.2957 105.836 79.9451C106.057 81.7443 105.554 83.5777 104.202 84.7953C103.545 85.3877 102.705 85.7588 101.851 85.9147C100.908 86.0877 99.8994 85.6621 99.2029 86.4962C99.0636 86.6615 98.9682 86.8922 99.0439 87.1151C99.2801 87.8105 99.6692 88.0771 100.278 88.1737C99.3982 89.2479 98.4958 90.2862 97.4965 91.2513C96.4155 92.2974 95.2981 93.3107 94.3228 94.4644C93.2919 95.6852 92.3607 96.9792 91.7142 98.4602C91.3448 99.3115 91.048 100.189 90.7284 101.061L90.6713 101.213C90.315 102.138 89.8409 103.031 90.3894 103.998C90.6074 104.378 91.101 104.746 91.5553 104.685C92.8345 104.517 93.263 103.627 93.6568 102.467C93.9536 101.591 94.1807 100.69 94.5 99.8213C94.5598 99.6605 94.6249 99.5014 94.6932 99.3431C95.4309 99.5548 96.242 99.3868 96.9003 98.9537C97.6037 99.2747 98.383 99.4348 99.1357 99.4212C100.143 99.403 101.064 99.1147 101.856 98.5948C101.919 98.5776 101.982 98.5611 102.045 98.5426C103.249 99.0174 104.659 98.9326 105.749 98.1629C106.456 97.6645 106.938 96.9993 107.213 96.2586C108.125 96.2406 109.027 95.9076 109.681 95.2413C110.281 94.6295 110.632 93.8402 110.736 93.02C111.521 92.8599 112.257 92.469 112.835 91.8106C113.317 91.2608 113.61 90.5605 113.709 89.8333C114.665 89.5524 115.527 88.9094 115.998 88.013C116.437 87.1784 116.5 86.2731 116.286 85.4496L116.341 85.3673V85.3673C117.326 84.8365 118.078 83.9674 118.155 82.7261C118.177 82.3727 118.14 82.0191 118.047 81.6846C118.081 81.3105 118.059 80.9367 117.964 80.575C119.289 79.2483 119.769 77.1171 119.05 75.3553C120.344 73.921 120.686 71.6526 119.737 69.9503C120.388 69.1395 120.723 68.1058 120.667 67.002C120.597 65.624 119.984 64.4203 119.249 63.3056C119.794 62.6851 120.085 61.8198 120.064 60.9842C120.034 59.7728 119.408 58.7298 118.625 57.8661C119.308 55.7333 118.545 53.4197 116.869 52.0696C117.208 51.4943 117.334 50.7818 117.223 50.06C117.03 48.7987 116.111 47.9397 115.119 47.26C115.326 46.5648 115.272 45.8148 114.942 45.096C114.501 44.1372 113.67 43.5292 112.802 43.0147C112.578 40.8882 110.271 39.0719 108.336 40.1695C108.816 38.5871 107.433 36.8784 105.844 36.6975C105.065 34.2685 102.381 32.7376 99.9675 33.3409C98.7335 31.6042 96.4367 30.9355 94.4865 31.6805C92.3424 29.989 89.6823 29.738 87.1735 30.597ZM102.446 78.2895C100.94 78.2053 99.81 79.4713 99.0165 80.6296C98.2717 81.7163 100.183 82.8637 100.74 81.6664C100.94 81.2392 101.167 80.7871 101.471 80.4129C101.522 80.4866 101.567 80.5629 101.612 80.6412L101.657 80.7201C101.691 80.7777 101.725 80.837 101.754 80.8978C101.751 80.9087 101.797 81.0521 101.798 81.0584C101.922 81.4466 102.193 81.696 102.562 81.8301C103.04 82.0016 103.491 81.6321 103.644 81.1987C103.887 80.5065 103.321 79.9031 102.732 79.6287C103.311 79.5321 103.88 79.7348 104.298 80.1931C104.355 80.257 104.452 80.2056 104.455 80.1261C104.504 79.0394 103.4 78.3425 102.446 78.2895Z" fill="#02000A"/>
<path fill-rule="evenodd" clip-rule="evenodd" d="M69.4076 94.6217C70.4254 94.1942 71.3336 93.481 71.9975 92.57C72.2283 92.2533 72.2882 91.9189 72.2397 91.613C72.1853 91.269 71.9877 90.9573 71.7182 90.7482C71.4478 90.5384 71.1097 90.435 70.7827 90.4877C70.4986 90.5336 70.2158 90.6937 69.992 91.0259L69.9453 91.0923C69.5506 91.6422 69.0362 92.0933 68.4501 92.3841C67.8852 92.6644 67.2535 92.7952 66.5997 92.7192C65.3545 92.5743 64.4963 91.8809 63.5841 90.9393C63.471 90.8204 63.3579 90.6978 63.2442 90.5733C63.1724 90.4603 63.0728 90.3877 62.9621 90.3497C62.8393 90.3074 62.7004 90.3098 62.5731 90.3555C62.4503 90.3996 62.3406 90.4832 62.267 90.5944C62.1971 90.7002 62.1575 90.8308 62.1703 90.981C62.2538 91.9568 62.7493 92.8277 63.4531 93.5115C64.2347 94.271 65.2708 94.7964 66.2463 94.9807C67.321 95.1837 68.416 95.0383 69.4076 94.6217V94.6217ZM65.7393 79.5678C64.596 80.2834 62.8539 81.952 64.0838 83.7261C65.5316 85.2904 67.6161 83.4968 68.6433 82.6857C69.5958 82.0571 70.666 83.6739 69.7823 84.4079C62.3597 90.0665 59.3474 79.7549 65.161 78.7264C65.8011 78.6131 66.0389 79.3464 65.7393 79.5678ZM79.0407 72.9854C78.9144 71.3709 76.5263 71.0042 76.2887 72.6019C76.076 74.0331 76.3264 75.3478 76.9525 76.6364C77.5507 77.8674 79.0543 77.2931 79.168 76.1721C79.3204 74.6695 79.1193 73.9898 79.0407 72.9854ZM60.862 72.2706C60.5291 71.8216 60.0484 71.5151 59.4724 71.6883C57.6729 72.2298 58.2033 74.8603 58.8353 76.1408C59.1787 76.8361 60.2887 77.0124 60.7903 76.4002C61.6079 75.4018 61.9994 73.4079 60.96 72.4245C60.9318 72.3737 60.9005 72.3224 60.862 72.2706ZM76.9778 65.9205L76.6936 65.8693C75.8142 65.7127 74.7209 65.5622 74.0988 66.2902C73.7689 66.6762 73.6553 67.3937 74.0988 67.7632C74.8788 68.4133 75.7413 68.1613 76.6761 68.2164C77.4464 68.2619 78.1868 68.3932 78.9289 68.6116C80.5568 69.0907 81.8833 69.9653 83.2737 70.9257C83.4561 71.0516 83.6424 70.8114 83.5553 70.6357C82.7527 69.0169 81.1973 67.6872 79.6393 66.8767C78.8077 66.4441 77.8978 66.0852 76.9778 65.9205ZM62.5024 65.1954L62.2849 65.2413C59.9172 65.7508 56.8412 66.7688 55.72 69.1634C55.6773 69.502 55.7224 69.5745 55.7591 69.622L55.7713 69.6377C55.8016 69.6782 55.8257 69.734 55.9683 69.7801C56.0078 69.7704 56.0478 69.7601 56.0881 69.7492C56.6021 69.6106 57.0087 69.4195 57.4023 69.2213L57.8291 69.0048C58.3243 68.7548 58.8239 68.5138 59.3533 68.336C60.4831 67.9565 61.6453 67.6892 62.8254 67.5465C63.0812 67.5156 63.3275 67.4267 63.5218 67.2743C63.7062 67.1297 63.8471 66.9295 63.9114 66.6634C63.9947 66.319 63.9707 66.0583 63.7913 65.7476C63.6563 65.5142 63.4632 65.3525 63.2415 65.2596C63.0155 65.165 62.7582 65.1426 62.5024 65.1954Z" fill="#02000A"/>
</svg>
